# xmcd CD database file
#
# Track frame offsets:
#	150
#	30215
#	60265
#	82805
#	101360
#	124087
#	145237
#
# Disc length: 2234 seconds
#
# Revision: 0
# Processed by: cddbd v1.5.2PL0 Copyright (c) Steve Scherf et al.
# Submitted via: CDex 1.70beta2
#
DISCID=4608b807
DTITLE=Hong Won Hwa - Jazz Violin
DYEAR=2003
DGENRE=Jazz
TTITLE0=Walkin'
TTITLE1=Just in Time
TTITLE2=In a Sentimental Mood
TTITLE3=Chega de Saudade
TTITLE4=Jelly Roll
TTITLE5=Waltz for Bach
TTITLE6=There will never be another You
EXTD=YEAR: 2003
EXTT0=
EXTT1=
EXTT2=
EXTT3=
EXTT4=
EXTT5=
EXTT6=
PLAYORDER=
